<svg xmlns="http://www.w3.org/2000/svg" width="336.35" height="305.547" viewBox="0 0 336.35 305.547">
  <g id="Group_449" data-name="Group 449" transform="translate(-1830.784 -1552.184)">
    <g id="Group_437" data-name="Group 437" transform="translate(1834.934 1590.744)">
      <g id="Group_434" data-name="Group 434" transform="translate(0 189.121)">
        <path id="Path_462" data-name="Path 462" d="M1971.526,1813.923H1834.934v-34.058h328.05v34.058Z" transform="translate(-1834.934 -1779.865)" fill="#c2e4f9"/>
      </g>
      <g id="Group_435" data-name="Group 435" transform="translate(188.987 108.491)">
        <path id="Path_463" data-name="Path 463" d="M2068.167,1725.731c4.337,6.329-.143,17.055-6.438,21.442s-17.807,4.829-22.143-1.5l-15.665-32.26c9.514-2.24,14.8-5.6,20.124-14.178Z" transform="translate(-2023.921 -1699.235)" fill="#c2e4f9"/>
      </g>
      <g id="Group_436" data-name="Group 436" transform="translate(103.377)">
        <path id="Path_464" data-name="Path 464" d="M1938.352,1645.975l.041-9.052a55.333,55.333,0,0,1,22.932-36.329,54.515,54.515,0,0,1,76.293,13.963,55.677,55.677,0,0,1-6.408,70.572,54.58,54.58,0,0,1-7.6,6.38,55.393,55.393,0,0,1-8.058,4.664,54.523,54.523,0,0,1-68.244-18.616,55.246,55.246,0,0,1-9-22.531Z" transform="translate(-1938.311 -1590.744)" fill="#c2e4f9"/>
      </g>
    </g>
    <g id="Group_448" data-name="Group 448" transform="translate(1834.934 1556.334)">
      <g id="Group_438" data-name="Group 438" transform="translate(103.377 34.41)">
        <path id="Path_465" data-name="Path 465" d="M1938.393,1636.923a55.333,55.333,0,0,1,22.932-36.329,54.515,54.515,0,0,1,76.293,13.963,55.677,55.677,0,0,1-6.408,70.572,54.58,54.58,0,0,1-7.6,6.38,55.393,55.393,0,0,1-8.058,4.664,54.523,54.523,0,0,1-68.244-18.616,55.246,55.246,0,0,1-9-22.531" transform="translate(-1938.311 -1590.744)" fill="none" stroke="#104170" stroke-linejoin="round" stroke-width="8.3"/>
      </g>
      <g id="Group_439" data-name="Group 439" transform="translate(180.622 128.795)">
        <path id="Path_466" data-name="Path 466" d="M2031.21,1685.129l12.835,14.106,24.122,26.5c4.337,6.329-.143,17.055-6.438,21.442s-17.807,4.829-22.143-1.5l-15.665-32.26-8.365-17.24" transform="translate(-2015.556 -1685.129)" fill="none" stroke="#104170" stroke-linejoin="round" stroke-width="8.3"/>
      </g>
      <g id="Group_440" data-name="Group 440" transform="translate(188.987 142.901)">
        <path id="Path_467" data-name="Path 467" d="M2023.921,1713.413c9.514-2.24,14.8-5.6,20.124-14.178" transform="translate(-2023.921 -1699.235)" fill="none" stroke="#104170" stroke-linejoin="round" stroke-width="8.3"/>
      </g>
      <g id="Group_441" data-name="Group 441" transform="translate(222.931 89.723)">
        <line id="Line_17" data-name="Line 17" x1="13.799" fill="none" stroke="#104170" stroke-linejoin="round" stroke-width="8.3"/>
      </g>
      <g id="Group_442" data-name="Group 442" transform="translate(69.157 64.438)">
        <path id="Path_468" data-name="Path 468" d="M1904.091,1645.975h64.626l16.4-25.2,21.928,48.586,15.008-23.383h14.506" transform="translate(-1904.091 -1620.772)" fill="none" stroke="#104170" stroke-linejoin="round" stroke-width="8.3"/>
      </g>
      <g id="Group_443" data-name="Group 443" transform="translate(0 223.531)">
        <line id="Line_18" data-name="Line 18" x2="328.05" fill="none" stroke="#104170" stroke-linejoin="round" stroke-width="8.3"/>
      </g>
      <g id="Group_444" data-name="Group 444">
        <path id="Path_469" data-name="Path 469" d="M2162.984,1779.865v34.058h-328.05V1556.334h328.05Z" transform="translate(-1834.934 -1556.334)" fill="none" stroke="#104170" stroke-linejoin="round" stroke-width="8.3"/>
      </g>
      <g id="Group_445" data-name="Group 445" transform="translate(102.516 297.246)">
        <path id="Path_470" data-name="Path 470" d="M1937.449,1853.58h123.019" transform="translate(-1937.449 -1853.58)" fill="none" stroke="#104170" stroke-linejoin="round" stroke-width="8.3"/>
      </g>
      <g id="Group_446" data-name="Group 446" transform="translate(196.215 269.671)">
        <line id="Line_19" data-name="Line 19" y1="27.575" fill="none" stroke="#104170" stroke-linejoin="round" stroke-width="8.3"/>
      </g>
      <g id="Group_447" data-name="Group 447" transform="translate(136.592 257.25)">
        <path id="Path_471" data-name="Path 471" d="M1971.526,1853.581v-40" transform="translate(-1971.526 -1813.584)" fill="none" stroke="#104170" stroke-linejoin="round" stroke-width="8.3"/>
      </g>
    </g>
  </g>
</svg>
