<svg xmlns="http://www.w3.org/2000/svg" xmlns:xlink="http://www.w3.org/1999/xlink" width="378.633" height="106.506" viewBox="0 0 378.633 106.506">
  <defs>
    <clipPath id="clip-path">
      <rect id="Rectangle_42" data-name="Rectangle 42" width="263.221" height="105.87"/>
    </clipPath>
  </defs>
  <g id="djopen-fullLogo" transform="translate(-17.9 -8.8)">
    <g id="Group_34" data-name="Group 34" transform="translate(133.312 8.8)">
      <g id="Group_29" data-name="Group 29" transform="translate(0)" clip-path="url(#clip-path)">
        <rect id="Rectangle_41" data-name="Rectangle 41" width="159.94" height="68.546" transform="translate(-0.353 6.528)" fill="none"/>
        <path id="Path_10" data-name="Path 10" d="M282.9,75.466V33.981c0-.772.363-1.181,1.136-1.181H300.8a10.673,10.673,0,0,1,7.815,2.772c1.863,1.818,2.817,4.453,2.817,7.815V66.106a10.513,10.513,0,0,1-2.817,7.77,10.673,10.673,0,0,1-7.815,2.772H284.036C283.263,76.647,282.9,76.239,282.9,75.466Zm7.361-4.635h9.587q4.907,0,4.907-5.044V43.66q0-5.044-4.907-5.044h-9.587c-.5,0-.727.227-.727.682V70.1C289.488,70.6,289.761,70.831,290.261,70.831Z" transform="translate(-277.902 -21.895)" fill="#383839"/>
        <path id="Path_11" data-name="Path 11" d="M378.622,87.505h-2.635c-3.362,0-5.952-.909-7.815-2.772a10.677,10.677,0,0,1-2.772-7.77V63.287c0-3.362.909-5.952,2.772-7.815s4.453-2.772,7.815-2.772h15.267c.818,0,1.227.409,1.227,1.136V86.279c0,.772-.409,1.136-1.227,1.136h-4.317a.992.992,0,0,1-1.136-1.136V83.825h-.273C384.393,86.279,382.121,87.505,378.622,87.505Zm7.134-11.587V59.2a.636.636,0,0,0-.727-.682H376.9q-4.907,0-4.907,5.044V76.646q0,5.044,4.907,5.044h3.272C383.893,81.689,385.756,79.781,385.756,75.919Z" transform="translate(-322.916 -32.753)" fill="#383839"/>
        <path id="Path_12" data-name="Path 12" d="M442.907,49.022h-3.272a1.372,1.372,0,0,1-.909-.227c-.182-.136-.227-.454-.227-.863V44.388a.992.992,0,0,1,1.136-1.136h3.272a.6.6,0,0,0,.682-.682V36.436c0-.772.409-1.136,1.227-1.136h4.271a1.043,1.043,0,0,1,1.181,1.136V42.57c0,.454.227.682.727.682h6.361c.818,0,1.227.409,1.227,1.136v3.544q0,1.091-1.227,1.091H451c-.5,0-.727.227-.727.682V67.2c0,3.317,1.727,5,5.089,5h2.635c.818,0,1.227.409,1.227,1.136v3.544q0,1.091-1.227,1.09h-3.68q-5.044,0-7.906-2.726c-1.908-1.818-2.863-4.362-2.863-7.724V49.7C443.589,49.249,443.362,49.022,442.907,49.022Z" transform="translate(-362.801 -23.259)" fill="#383839"/>
        <path id="Path_13" data-name="Path 13" d="M512.522,87.505h-2.635c-3.362,0-5.952-.909-7.815-2.772a10.677,10.677,0,0,1-2.772-7.77V63.287c0-3.362.909-5.952,2.772-7.815,1.818-1.863,4.453-2.772,7.815-2.772h15.267c.818,0,1.227.409,1.227,1.136V86.279c0,.772-.409,1.136-1.227,1.136h-4.271c-.772,0-1.181-.364-1.181-1.136V83.825h-.273C518.338,86.279,516.021,87.505,512.522,87.505ZM519.7,75.919V59.2a.636.636,0,0,0-.727-.682h-8.133q-4.907,0-4.907,5.044V76.646q0,5.044,4.907,5.044h3.272C517.839,81.689,519.7,79.781,519.7,75.919Z" transform="translate(-395.974 -32.753)" fill="#383839"/>
      </g>
      <g id="Group_30" data-name="Group 30" transform="translate(0)" clip-path="url(#clip-path)">
        <rect id="Rectangle_43" data-name="Rectangle 43" width="159.941" height="68.157" transform="translate(107.824 50.481)" fill="none"/>
        <path id="Path_14" data-name="Path 14" d="M536.992,128.9h4.317c.772,0,1.136.364,1.136,1.09v32.17a10.677,10.677,0,0,1-2.772,7.77,10.513,10.513,0,0,1-7.77,2.817h-6.816c-3.362,0-6-.909-7.815-2.817-1.863-1.863-2.772-4.453-2.772-7.77v-6.134c0-.772.409-1.136,1.227-1.136H520a1.043,1.043,0,0,1,1.181,1.136v5.861q0,5.044,4.907,5.044H530.9q4.907,0,4.907-5.044V130.036C535.765,129.264,536.174,128.9,536.992,128.9Z" transform="translate(-404.268 -74.329)" fill="#383839"/>
        <path id="Path_15" data-name="Path 15" d="M612.885,183.505h-6c-3.362,0-5.952-.909-7.815-2.817a10.676,10.676,0,0,1-2.772-7.77V159.287c0-3.362.909-5.952,2.772-7.815a10.716,10.716,0,0,1,7.815-2.772h6a10.673,10.673,0,0,1,7.815,2.772c1.863,1.818,2.817,4.453,2.817,7.815v13.631a10.513,10.513,0,0,1-2.817,7.77C618.837,182.6,616.2,183.505,612.885,183.505Zm-5.044-5.771h4.18c3.272,0,4.907-1.636,4.907-5V159.514c0-3.317-1.636-5-4.907-5h-4.18a5.013,5.013,0,0,0-3.726,1.181,5.277,5.277,0,0,0-1.136,3.771v13.222a5.2,5.2,0,0,0,1.136,3.771A4.744,4.744,0,0,0,607.841,177.735Z" transform="translate(-448.9 -85.133)" fill="#383839"/>
        <path id="Path_16" data-name="Path 16" d="M676.5,127.37v-6.18a.964.964,0,0,1,1.091-1.091h4.453a.964.964,0,0,1,1.091,1.091v6.18c0,.772-.363,1.136-1.091,1.136h-4.453C676.864,128.506,676.5,128.143,676.5,127.37Zm0,39.395V134.322c0-.772.364-1.136,1.091-1.136h4.362a1.01,1.01,0,0,1,1.136,1.136v32.443a1.372,1.372,0,0,1-.227.909,1.159,1.159,0,0,1-.863.227h-4.362A.992.992,0,0,1,676.5,166.765Z" transform="translate(-492.659 -69.528)" fill="#383839"/>
        <path id="Path_17" data-name="Path 17" d="M718.353,183.56h-4.271c-.773,0-1.181-.364-1.181-1.136V149.981c0-.772.363-1.136,1.181-1.136h4.271a1.043,1.043,0,0,1,1.181,1.136v2.454h.273c1.091-2.408,3.362-3.635,6.907-3.635h3q4.975,0,7.634,2.726c1.772,1.818,2.681,4.453,2.681,7.815v23.037c0,.772-.409,1.136-1.227,1.136h-4.271c-.772,0-1.181-.364-1.181-1.136V159.614c0-3.362-1.681-5.044-4.953-5.044h-3.226c-3.726,0-5.589,1.954-5.589,5.816v22.037A1.077,1.077,0,0,1,718.353,183.56Z" transform="translate(-512.519 -85.187)" fill="#383839"/>
        <path id="Path_18" data-name="Path 18" d="M789.707,145.122h-3.272a1.372,1.372,0,0,1-.909-.227c-.182-.136-.227-.454-.227-.863v-3.544a.992.992,0,0,1,1.136-1.136h3.272a.6.6,0,0,0,.682-.682v-6.134c0-.772.409-1.136,1.227-1.136h4.317a1.01,1.01,0,0,1,1.136,1.136v6.134c0,.454.227.682.773.682h6.316c.818,0,1.227.409,1.227,1.136v3.544q0,1.091-1.227,1.091h-6.316c-.5,0-.773.227-.773.682V163.3c0,3.317,1.727,5,5.089,5h2.635c.818,0,1.227.409,1.227,1.136v3.544q0,1.091-1.227,1.09h-3.68q-5.044,0-7.906-2.726c-1.908-1.818-2.863-4.362-2.863-7.724V145.758C790.389,145.349,790.162,145.122,789.707,145.122Z" transform="translate(-552.022 -75.693)" fill="#383839"/>
      </g>
      <g id="Group_31" data-name="Group 31" transform="translate(0 0)" clip-path="url(#clip-path)">
        <rect id="Rectangle_45" data-name="Rectangle 45" width="20.674" height="20.674" transform="translate(131.588 32.852)" fill="#93c4ca"/>
      </g>
      <g id="Group_32" data-name="Group 32" transform="translate(0 0)" clip-path="url(#clip-path)">
        <rect id="Rectangle_47" data-name="Rectangle 47" width="20.674" height="20.674" transform="translate(109.687 55.661)" fill="#5bb6c8"/>
      </g>
      <g id="Group_33" data-name="Group 33" transform="translate(0)" clip-path="url(#clip-path)">
        <rect id="Rectangle_49" data-name="Rectangle 49" width="133.133" height="23.173" transform="translate(152.262 31.579)" fill="none"/>
        <path id="Path_19" data-name="Path 19" d="M615.216,99.587h-1.954a3.328,3.328,0,0,1-2.454-.909,3.366,3.366,0,0,1-.909-2.5V91.362A3.134,3.134,0,0,1,613.262,88h1.954a3.157,3.157,0,0,1,2.454.909,3.328,3.328,0,0,1,.909,2.454v4.862a3.439,3.439,0,0,1-.909,2.5A3.5,3.5,0,0,1,615.216,99.587Zm-1.772-1.454h1.59a1.7,1.7,0,0,0,1.908-1.954V91.408a1.7,1.7,0,0,0-1.908-1.954h-1.59a1.7,1.7,0,0,0-1.908,1.954v4.771A1.719,1.719,0,0,0,613.444,98.133Z" transform="translate(-456.32 -52.013)" fill="#5bb6c8"/>
        <path id="Path_20" data-name="Path 20" d="M635.318,102.9h-1c-.227,0-.318-.091-.318-.318V88.318c0-.227.091-.318.318-.318h1c.227,0,.318.091.318.318v.863h.091A2.239,2.239,0,0,1,638.044,88h1.363a3.055,3.055,0,0,1,2.408.909,3.5,3.5,0,0,1,.863,2.454v4.862a3.416,3.416,0,0,1-.863,2.5,3.219,3.219,0,0,1-2.408.909h-1.363a2.264,2.264,0,0,1-2.317-1.227h-.091v4.18A.287.287,0,0,1,635.318,102.9Zm2.408-4.771h1.363A1.719,1.719,0,0,0,641,96.179V91.408a1.7,1.7,0,0,0-1.908-1.954h-1.363a1.9,1.9,0,0,0-2.09,2.09v4.5a1.9,1.9,0,0,0,2.09,2.09Z" transform="translate(-469.47 -52.013)" fill="#5bb6c8"/>
        <path id="Path_21" data-name="Path 21" d="M665.579,99.587h-4.816a3.328,3.328,0,0,1-2.454-.909,3.366,3.366,0,0,1-.909-2.5V91.362A3.134,3.134,0,0,1,660.762,88h1.908a3.157,3.157,0,0,1,2.454.909,3.328,3.328,0,0,1,.909,2.454V94.27c0,.227-.091.364-.318.364h-6.452a.215.215,0,0,0-.227.227v1.363a1.7,1.7,0,0,0,1.908,1.954h4.635c.227,0,.318.091.318.318v.818C665.9,99.45,665.806,99.587,665.579,99.587Zm-6.316-6.225h4.907a.215.215,0,0,0,.227-.227V91.362a1.7,1.7,0,0,0-1.908-1.954h-1.545a1.7,1.7,0,0,0-1.908,1.954v1.772A.215.215,0,0,0,659.263,93.362Z" transform="translate(-482.237 -52.013)" fill="#5bb6c8"/>
        <path id="Path_22" data-name="Path 22" d="M682.418,99.587h-1c-.227,0-.318-.091-.318-.318V88.318c0-.227.091-.318.318-.318h1c.227,0,.318.091.318.318v.863h.091A2.239,2.239,0,0,1,685.144,88h1.272a3.055,3.055,0,0,1,2.408.909,3.305,3.305,0,0,1,.863,2.454v7.906c0,.227-.091.318-.318.318h-1.045c-.227,0-.318-.091-.318-.318V91.408a1.7,1.7,0,0,0-1.908-1.954h-1.272a2.178,2.178,0,0,0-1.59.545,2.066,2.066,0,0,0-.545,1.545v7.724C682.736,99.45,682.645,99.587,682.418,99.587Z" transform="translate(-495.168 -52.013)" fill="#5bb6c8"/>
        <path id="Path_23" data-name="Path 23" d="M719.653,99.587h-4.044c-.227,0-.318-.091-.318-.318v-.818c0-.182.091-.273.318-.273h3.817c1.181,0,1.772-.454,1.772-1.318v-.454a1.576,1.576,0,0,0-1.136-1.636l-2.681-1.136A4.041,4.041,0,0,1,715.7,92.5a2.787,2.787,0,0,1-.5-1.727c0-1.863,1-2.772,3.09-2.772h3.726c.227,0,.318.091.318.318v.818c0,.182-.091.273-.318.273h-3.408a1.657,1.657,0,0,0-1.227.364,1.032,1.032,0,0,0-.409.818V91c0,.636.409,1.136,1.272,1.454l2.681,1.181a2.839,2.839,0,0,1,1.59,1.227,4.3,4.3,0,0,1,.409,2.045C722.879,98.678,721.834,99.587,719.653,99.587Z" transform="translate(-513.774 -52.013)" fill="#5bb6c8"/>
        <path id="Path_24" data-name="Path 24" d="M741.316,99.587h-1.954a3.328,3.328,0,0,1-2.454-.909,3.366,3.366,0,0,1-.909-2.5V91.362A3.134,3.134,0,0,1,739.362,88h1.954a3.157,3.157,0,0,1,2.454.909,3.328,3.328,0,0,1,.909,2.454v4.862a3.439,3.439,0,0,1-.909,2.5A3.5,3.5,0,0,1,741.316,99.587Zm-1.772-1.454h1.59a1.7,1.7,0,0,0,1.908-1.954V91.408a1.7,1.7,0,0,0-1.908-1.954h-1.59a1.7,1.7,0,0,0-1.908,1.954v4.771A1.719,1.719,0,0,0,739.544,98.133Z" transform="translate(-525.123 -52.013)" fill="#5bb6c8"/>
        <path id="Path_25" data-name="Path 25" d="M764.244,99.532h-1.272a3.219,3.219,0,0,1-2.408-.909,3.346,3.346,0,0,1-.863-2.5V88.264c0-.227.091-.318.318-.318h1c.227,0,.318.091.318.318v7.815a1.7,1.7,0,0,0,1.908,1.954h1.272a2.179,2.179,0,0,0,1.59-.545,2.066,2.066,0,0,0,.545-1.545V88.218c0-.227.091-.318.318-.318h1c.227,0,.318.091.318.318V99.169c0,.227-.091.318-.318.318h-1c-.227,0-.318-.091-.318-.318V98.26h-.091A2.229,2.229,0,0,1,764.244,99.532Z" transform="translate(-538.054 -51.959)" fill="#5bb6c8"/>
        <path id="Path_26" data-name="Path 26" d="M785.418,99.587h-1c-.227,0-.318-.091-.318-.318V88.318c0-.227.091-.318.318-.318h1c.227,0,.318.091.318.318v.909h.091a1.969,1.969,0,0,1,.863-.863,3.049,3.049,0,0,1,1.5-.364h.909c.182,0,.273.091.273.318v.818a.341.341,0,0,1-.045.227.2.2,0,0,1-.227.045h-1.227a2.026,2.026,0,0,0-1.59.591,2.415,2.415,0,0,0-.545,1.681v7.5C785.736,99.45,785.645,99.587,785.418,99.587Z" transform="translate(-551.368 -52.013)" fill="#5bb6c8"/>
        <path id="Path_27" data-name="Path 27" d="M805.252,98.451v.818a.287.287,0,0,1-.318.318h-3.272a3.328,3.328,0,0,1-2.454-.909,3.366,3.366,0,0,1-.909-2.5V91.362A3.134,3.134,0,0,1,801.662,88h3.272c.227,0,.318.091.318.318v.818a.287.287,0,0,1-.318.318H801.8a1.7,1.7,0,0,0-1.908,1.954v4.726a1.7,1.7,0,0,0,1.908,1.954h3.09C805.161,98.133,805.252,98.224,805.252,98.451Z" transform="translate(-559.115 -52.013)" fill="#5bb6c8"/>
        <path id="Path_28" data-name="Path 28" d="M824.879,99.587h-4.816a3.328,3.328,0,0,1-2.454-.909,3.366,3.366,0,0,1-.909-2.5V91.362A3.134,3.134,0,0,1,820.062,88h1.908a3.157,3.157,0,0,1,2.454.909,3.328,3.328,0,0,1,.909,2.454V94.27c0,.227-.091.364-.318.364h-6.452a.215.215,0,0,0-.227.227v1.363a1.7,1.7,0,0,0,1.908,1.954h4.635c.227,0,.318.091.318.318v.818C825.2,99.45,825.106,99.587,824.879,99.587Zm-6.316-6.225h4.907a.215.215,0,0,0,.227-.227V91.362a1.7,1.7,0,0,0-1.908-1.954h-1.545a1.7,1.7,0,0,0-1.908,1.954v1.772A.215.215,0,0,0,818.563,93.362Z" transform="translate(-569.155 -52.013)" fill="#5bb6c8"/>
      </g>
    </g>
    <g id="XMLID_1_" transform="translate(17.9 11.799)">
      <g id="Group_35" data-name="Group 35">
        <path id="Path_29" data-name="Path 29" d="M212.527,48V77.535L186.9,92.347V62.767Z" transform="translate(-110.11 -33.187)" fill="#93c4ca"/>
        <path id="Path_30" data-name="Path 30" d="M130.6,30.213h0L156.181,15.4l25.627,14.813L156.181,44.98Z" transform="translate(-79.392 -15.4)" fill="#8cbac0"/>
        <path id="Path_31" data-name="Path 31" d="M156.181,145.6v29.58L130.6,189.947v-29.58Z" transform="translate(-79.392 -86.44)" fill="#5bb6c8"/>
        <path id="Path_32" data-name="Path 32" d="M156.181,127.867h0L130.6,113.1h0Z" transform="translate(-79.392 -68.707)" fill="#93c4ca"/>
        <path id="Path_33" data-name="Path 33" d="M156.181,80.5v29.58L130.6,95.313Z" transform="translate(-79.392 -50.92)" fill="#87b3b9"/>
        <path id="Path_34" data-name="Path 34" d="M130.6,48l25.581,14.767L130.6,77.58V48Z" transform="translate(-79.392 -33.187)" fill="#87b3b9"/>
        <path id="Path_35" data-name="Path 35" d="M156.181,127.867,130.6,142.635h0V113.1h0Z" transform="translate(-79.392 -68.707)" fill="#54a7b7"/>
        <path id="Path_36" data-name="Path 36" d="M99.827,77.58h0L74.2,62.767h.045L99.827,48V77.58Z" transform="translate(-48.619 -33.187)" fill="#fdba54"/>
        <path id="Path_37" data-name="Path 37" d="M130.6,113.1Z" transform="translate(-79.392 -68.707)" fill="#87b3b9"/>
        <path id="Path_38" data-name="Path 38" d="M99.827,160.367v29.58L74.2,175.18V145.6Z" transform="translate(-48.619 -86.44)" fill="#57aebe"/>
        <path id="Path_39" data-name="Path 39" d="M99.827,142.635h0L74.2,127.867,99.827,113.1h0v29.535Z" transform="translate(-48.619 -68.707)" fill="#54a7b7"/>
        <path id="Path_40" data-name="Path 40" d="M130.6,113.1Z" transform="translate(-79.392 -68.707)" fill="#54a7b7"/>
        <path id="Path_41" data-name="Path 41" d="M99.827,95.313,74.2,110.08V80.5Z" transform="translate(-48.619 -50.92)" fill="#fdba54"/>
        <path id="Path_42" data-name="Path 42" d="M130.6,124.847V95.313L156.227,80.5v29.58Z" transform="translate(-79.392 -50.92)" fill="#93c4ca" opacity="0.25"/>
        <path id="Path_43" data-name="Path 43" d="M69.108,30.213,43.527,44.98,17.9,30.213h0L43.527,15.4Z" transform="translate(-17.9 -15.4)" fill="#efb050"/>
        <path id="Path_44" data-name="Path 44" d="M99.881,95.313v29.535L74.3,110.08V80.5h0Z" transform="translate(-48.673 -50.92)" fill="#50a6b7" opacity="0.25"/>
      </g>
    </g>
  </g>
</svg>
