<svg xmlns="http://www.w3.org/2000/svg" width="18.259" height="16.23" viewBox="0 0 18.259 16.23">
  <path id="Icon_awesome-external-link-alt" data-name="Icon awesome-external-link-alt" d="M18.259.761V4.818a.761.761,0,0,1-1.3.538L15.829,4.224l-7.72,7.72a.761.761,0,0,1-1.076,0l-.717-.717a.761.761,0,0,1,0-1.076l7.72-7.72L12.9,1.3A.761.761,0,0,1,13.442,0H17.5A.761.761,0,0,1,18.259.761ZM12.9,8.584l-.507.507a.761.761,0,0,0-.223.538V14.2H2.029V4.058H10.4a.761.761,0,0,0,.538-.223l.507-.507a.761.761,0,0,0-.538-1.3H1.522A1.522,1.522,0,0,0,0,3.55V14.709A1.522,1.522,0,0,0,1.522,16.23H12.68A1.522,1.522,0,0,0,14.2,14.709V9.122A.761.761,0,0,0,12.9,8.584Z" fill="#fff"/>
</svg>
