<svg xmlns="http://www.w3.org/2000/svg" width="31.817" height="31.817" viewBox="0 0 31.817 31.817">
  <path id="Icon_awesome-github-square" data-name="Icon awesome-github-square" d="M28.408,2.25h-25A3.41,3.41,0,0,0,0,5.659v25a3.41,3.41,0,0,0,3.409,3.409h25a3.41,3.41,0,0,0,3.409-3.409v-25A3.41,3.41,0,0,0,28.408,2.25ZM19.694,29.5c-.6.107-.817-.263-.817-.568,0-.384.014-2.344.014-3.927a2.767,2.767,0,0,0-.8-2.18c2.628-.291,5.4-.653,5.4-5.192a3.646,3.646,0,0,0-1.214-2.77,4.442,4.442,0,0,0-.121-3.2c-.987-.305-3.246,1.271-3.246,1.271a11.172,11.172,0,0,0-5.909,0s-2.258-1.577-3.246-1.271a4.407,4.407,0,0,0-.121,3.2,3.567,3.567,0,0,0-1.108,2.77c0,4.517,2.649,4.9,5.277,5.192a2.574,2.574,0,0,0-.753,1.584,2.492,2.492,0,0,1-3.43-.987,2.474,2.474,0,0,0-1.811-1.214c-1.151-.014-.078.724-.078.724.767.355,1.307,1.719,1.307,1.719.689,2.109,3.984,1.4,3.984,1.4,0,.987.014,2.592.014,2.883s-.213.675-.817.568A11.782,11.782,0,0,1,4.247,18.258,11.27,11.27,0,0,1,15.752,6.788a11.522,11.522,0,0,1,11.8,11.47A11.674,11.674,0,0,1,19.694,29.5Zm-6.967-4.339c-.135.028-.263-.028-.277-.121s.078-.2.213-.227.263.043.277.135S12.869,25.133,12.727,25.161Zm-.675-.064c0,.092-.107.17-.249.17s-.263-.064-.263-.17.107-.17.249-.17S12.052,24.991,12.052,25.1Zm-.973-.078c-.028.092-.17.135-.291.092s-.227-.135-.2-.227.17-.135.291-.107C11.022,24.82,11.115,24.927,11.079,25.019Zm-.874-.384c-.064.078-.2.064-.305-.043s-.135-.227-.064-.291.2-.064.305.043S10.269,24.579,10.206,24.635Zm-.646-.646c-.064.043-.185,0-.263-.107s-.078-.227,0-.277.2-.014.263.092a.208.208,0,0,1,0,.291ZM9.1,23.3c-.064.064-.17.028-.249-.043-.078-.092-.092-.2-.028-.249s.17-.028.249.043C9.147,23.144,9.162,23.251,9.1,23.3Zm-.476-.526a.134.134,0,0,1-.2.028c-.092-.043-.135-.121-.107-.185a.167.167,0,0,1,.2-.028C8.608,22.64,8.65,22.718,8.622,22.775Z" transform="translate(0 -2.25)" fill="#fff"/>
</svg>
