<svg xmlns="http://www.w3.org/2000/svg" width="31.817" height="31.817" viewBox="0 0 31.817 31.817">
  <path id="Icon_awesome-linkedin" data-name="Icon awesome-linkedin" d="M29.544,2.25H2.266A2.282,2.282,0,0,0,0,4.544V31.773a2.282,2.282,0,0,0,2.266,2.294H29.544a2.288,2.288,0,0,0,2.273-2.294V4.544A2.288,2.288,0,0,0,29.544,2.25ZM9.616,29.522H4.9V14.338H9.623V29.522ZM7.258,12.264A2.734,2.734,0,1,1,9.992,9.53a2.735,2.735,0,0,1-2.734,2.734ZM27.293,29.522H22.577V22.136c0-1.761-.036-4.027-2.45-4.027-2.457,0-2.834,1.918-2.834,3.9v7.514H12.578V14.338H17.1v2.074h.064a4.967,4.967,0,0,1,4.467-2.45c4.773,0,5.66,3.146,5.66,7.237Z" transform="translate(0 -2.25)" fill="#fff"/>
</svg>
