<svg xmlns="http://www.w3.org/2000/svg" width="23.749" height="23.749" viewBox="0 0 23.749 23.749">
  <path id="Icon_awesome-linkedin-in" data-name="Icon awesome-linkedin-in" d="M5.316,23.75H.392V7.894H5.316ZM2.852,5.731A2.865,2.865,0,1,1,5.7,2.852,2.876,2.876,0,0,1,2.852,5.731ZM23.744,23.75H18.831V16.031c0-1.84-.037-4.2-2.56-4.2-2.56,0-2.952,2-2.952,4.066V23.75H8.4V7.894h4.722v2.163h.069A5.174,5.174,0,0,1,17.85,7.5c4.983,0,5.9,3.281,5.9,7.544v8.71Z" transform="translate(0 0)" fill="#fff"/>
</svg>
