<svg xmlns="http://www.w3.org/2000/svg" width="26.81" height="26.14" viewBox="0 0 26.81 26.14">
  <path id="Icon_awesome-github" data-name="Icon awesome-github" d="M8.967,21.611c0,.108-.124.195-.281.195-.178.016-.3-.07-.3-.195,0-.108.124-.195.281-.195C8.827,21.4,8.967,21.486,8.967,21.611Zm-1.681-.243c-.038.108.07.232.232.265a.254.254,0,0,0,.335-.108c.032-.108-.07-.232-.232-.281A.277.277,0,0,0,7.286,21.367Zm2.389-.092c-.157.038-.265.141-.249.265.016.108.157.178.319.141s.265-.141.249-.249S9.832,21.259,9.675,21.275ZM13.232.563A12.961,12.961,0,0,0,0,13.751,13.551,13.551,0,0,0,9.162,26.681c.692.124.935-.3.935-.654,0-.335-.016-2.184-.016-3.319,0,0-3.784.811-4.578-1.611,0,0-.616-1.573-1.5-1.978,0,0-1.238-.849.086-.832a2.853,2.853,0,0,1,2.086,1.395,2.857,2.857,0,0,0,3.94,1.13,3,3,0,0,1,.865-1.822c-3.022-.335-6.07-.773-6.07-5.973A4.1,4.1,0,0,1,6.184,9.832a5.107,5.107,0,0,1,.141-3.67c1.13-.351,3.73,1.459,3.73,1.459a12.769,12.769,0,0,1,6.789,0s2.6-1.816,3.73-1.459a5.1,5.1,0,0,1,.141,3.67,4.2,4.2,0,0,1,1.395,3.184c0,5.216-3.184,5.632-6.205,5.973a3.2,3.2,0,0,1,.919,2.508c0,1.822-.016,4.076-.016,4.519,0,.351.249.778.935.654a13.427,13.427,0,0,0,9.07-12.919A13.253,13.253,0,0,0,13.232.563ZM5.254,19.205c-.07.054-.054.178.038.281.086.086.211.124.281.054.07-.054.054-.178-.038-.281C5.448,19.173,5.324,19.135,5.254,19.205Zm-.584-.438c-.038.07.016.157.124.211a.161.161,0,0,0,.232-.038c.038-.07-.016-.157-.124-.211C4.794,18.7,4.708,18.713,4.67,18.767Zm1.751,1.924c-.086.07-.054.232.07.335.124.124.281.141.351.054.07-.07.038-.232-.07-.335C6.654,20.621,6.492,20.605,6.421,20.692ZM5.805,19.9c-.086.054-.086.195,0,.319s.232.178.3.124a.247.247,0,0,0,0-.335C6.032,19.881,5.892,19.827,5.805,19.9Z" transform="translate(0 -0.563)" fill="#fff"/>
</svg>
