<svg xmlns="http://www.w3.org/2000/svg" width="44.285" height="43.998" viewBox="0 0 44.285 43.998">
  <path id="Icon_metro-pin" data-name="Icon metro-pin" d="M17.935,26.993l11.929-6.977a3.039,3.039,0,0,1,4.181,1.133,3.124,3.124,0,0,1-1.12,4.236L21,32.362a3.038,3.038,0,0,1-4.181-1.135,3.118,3.118,0,0,1,1.119-4.234Zm9.838-7.544L18.5,24.875l-3.156-8.9,6.407-3.746,6.027,7.215ZM34.613,42.3,25.738,31.38l3.976-2.326ZM11.505,11.059l7.951-4.651a2.279,2.279,0,0,1,3.136.851,2.341,2.341,0,0,1-.84,3.177L13.8,15.087a2.279,2.279,0,0,1-3.136-.851,2.342,2.342,0,0,1,.842-3.177Z" transform="matrix(0.695, 0.719, -0.719, 0.695, 23.903, -10.875)" fill="#5560fa" stroke="#5560fa" stroke-width="1"/>
</svg>
