<svg xmlns="http://www.w3.org/2000/svg" width="31.817" height="31.817" viewBox="0 0 31.817 31.817">
  <path id="Icon_awesome-twitter-square" data-name="Icon awesome-twitter-square" d="M28.408,2.25h-25A3.41,3.41,0,0,0,0,5.659v25a3.41,3.41,0,0,0,3.409,3.409h25a3.41,3.41,0,0,0,3.409-3.409v-25A3.41,3.41,0,0,0,28.408,2.25ZM24.935,13.528c.014.2.014.4.014.6A13.162,13.162,0,0,1,11.7,27.384,13.191,13.191,0,0,1,4.545,25.3a9.813,9.813,0,0,0,1.122.057,9.339,9.339,0,0,0,5.781-1.989,4.664,4.664,0,0,1-4.354-3.231,5.02,5.02,0,0,0,2.1-.085,4.658,4.658,0,0,1-3.729-4.574v-.057a4.655,4.655,0,0,0,2.1.589A4.648,4.648,0,0,1,5.5,12.129a4.6,4.6,0,0,1,.632-2.351,13.226,13.226,0,0,0,9.6,4.872A4.668,4.668,0,0,1,23.678,10.4a9.127,9.127,0,0,0,2.954-1.122,4.646,4.646,0,0,1-2.045,2.564,9.269,9.269,0,0,0,2.685-.724A9.8,9.8,0,0,1,24.935,13.528Z" transform="translate(0 -2.25)" fill="#fff"/>
</svg>
