<svg xmlns="http://www.w3.org/2000/svg" width="27.025" height="21.949" viewBox="0 0 27.025 21.949">
  <path id="Icon_awesome-twitter" data-name="Icon awesome-twitter" d="M24.247,8.851c.017.24.017.48.017.72A15.651,15.651,0,0,1,8.505,25.33,15.652,15.652,0,0,1,0,22.844a11.458,11.458,0,0,0,1.338.069,11.093,11.093,0,0,0,6.876-2.366A5.549,5.549,0,0,1,3.035,16.7a6.985,6.985,0,0,0,1.046.086A5.858,5.858,0,0,0,5.539,16.6,5.54,5.54,0,0,1,1.1,11.166V11.1a5.578,5.578,0,0,0,2.5.7A5.547,5.547,0,0,1,1.886,4.392a15.744,15.744,0,0,0,11.421,5.8A6.253,6.253,0,0,1,13.17,8.92a5.544,5.544,0,0,1,9.586-3.79,10.9,10.9,0,0,0,3.515-1.338,5.524,5.524,0,0,1-2.435,3.052,11.1,11.1,0,0,0,3.19-.857,11.906,11.906,0,0,1-2.778,2.864Z" transform="translate(0 -3.381)" fill="#fff"/>
</svg>
