<?xml version="1.0" standalone="no"?>
<!DOCTYPE svg PUBLIC "-//W3C//DTD SVG 20010904//EN"
 "http://www.w3.org/TR/2001/REC-SVG-20010904/DTD/svg10.dtd">
<svg version="1.0" xmlns="http://www.w3.org/2000/svg"
 width="521.000000pt" height="521.000000pt" viewBox="0 0 521.000000 521.000000"
 preserveAspectRatio="xMidYMid meet">
<metadata>
Created by potrace 1.14, written by Peter Selinger 2001-2017
</metadata>
<g transform="translate(0.000000,521.000000) scale(0.100000,-0.100000)"
fill="#000000" stroke="none">
<path d="M1400 5199 c-81 -34 -131 -108 -131 -193 l0 -52 -276 -159 c-152 -88
-299 -173 -327 -188 -28 -16 -77 -45 -108 -64 l-58 -34 -27 19 c-109 75 -256
32 -307 -90 -41 -97 4 -212 98 -257 61 -28 121 -27 182 4 27 14 51 25 54 25 3
0 48 -25 100 -56 52 -31 109 -65 125 -74 166 -97 204 -119 401 -235 l140 -84
2 -42 c2 -23 12 -59 23 -80 19 -39 90 -99 116 -99 11 0 13 -82 13 -470 l0
-470 -34 -14 c-68 -29 -117 -105 -117 -186 -1 -80 41 -145 119 -184 l32 -17 0
-444 c0 -367 -2 -445 -13 -445 -8 0 -33 -13 -55 -30 -123 -89 -107 -275 29
-346 52 -26 137 -23 189 8 l42 25 444 -256 c244 -141 444 -260 444 -266 0 -5
-63 -107 -139 -225 l-139 -215 361 -3 c198 -1 362 0 365 3 2 2 -54 102 -126
222 -118 197 -129 219 -114 231 10 8 210 125 446 261 l429 248 46 -26 c54 -30
137 -34 186 -8 70 36 118 118 114 191 -4 75 -57 152 -121 179 l-33 14 0 442 0
441 43 21 c73 36 116 113 110 196 l-3 48 70 41 c657 382 717 415 734 400 46
-42 128 -56 192 -34 81 27 139 110 139 195 -1 74 -70 173 -134 189 l-23 5 0
451 1 450 42 20 c122 57 151 222 56 321 -72 76 -175 83 -278 18 -19 -12 -55 6
-407 209 l-387 223 0 48 c0 105 -74 189 -177 205 -122 18 -235 -86 -228 -210
l2 -41 -174 -100 c-96 -55 -186 -107 -201 -116 -15 -9 -47 -27 -72 -41 -25
-14 -109 -62 -187 -108 l-142 -82 -28 20 c-74 52 -166 51 -238 -3 l-31 -23
-391 227 -392 226 0 50 c1 107 -79 194 -187 201 -33 2 -70 -1 -84 -7z m19
-388 c54 -15 109 -5 161 27 l46 29 300 -174 c164 -95 340 -196 390 -224 l90
-52 -2 -54 -2 -55 -53 -32 c-30 -18 -61 -35 -69 -39 -8 -4 -28 -15 -45 -25
-16 -11 -159 -94 -318 -185 l-287 -167 -21 21 c-34 34 -98 58 -148 55 -52 -3
-119 -34 -140 -64 -14 -20 -15 -20 -60 8 -25 15 -113 67 -196 115 -82 49 -188
111 -235 139 -47 28 -101 60 -120 71 -20 11 -63 35 -96 54 l-60 35 0 67 0 68
61 34 c33 18 132 75 220 127 88 51 180 104 205 118 25 14 78 45 118 69 41 24
75 43 77 43 2 0 20 11 40 24 l36 25 36 -25 c20 -13 52 -28 72 -33z m2249 1
c52 -18 131 -5 173 29 l37 29 253 -147 c140 -80 315 -181 388 -225 l135 -78 2
-58 1 -58 -46 -25 c-25 -14 -138 -79 -251 -144 -113 -65 -266 -154 -340 -196
l-135 -78 -25 23 c-36 34 -62 45 -114 50 -57 6 -99 -7 -147 -44 l-35 -28 -250
144 c-137 79 -260 151 -274 159 -14 8 -72 42 -130 75 l-106 61 2 62 c1 57 4
63 30 79 16 10 108 64 204 119 96 55 182 105 190 110 24 14 240 139 294 169
l50 28 30 -23 c17 -12 46 -27 64 -33z m-1187 -611 c13 -10 34 -21 47 -25 l22
-7 0 -485 c0 -266 -3 -484 -6 -484 -3 0 -108 59 -232 131 -125 73 -246 143
-269 155 -61 35 -324 188 -349 204 -16 10 -22 23 -20 48 l1 35 345 199 c190
110 363 210 385 223 49 29 47 29 76 6z m688 -224 l354 -205 2 -35 c1 -33 -3
-37 -75 -80 -41 -25 -93 -55 -115 -67 -85 -47 -612 -354 -647 -376 l-38 -24 0
27 c-1 43 -1 703 0 836 0 105 2 117 18 117 9 0 30 11 47 24 37 29 -10 52 454
-217z m1636 -266 l0 -449 -36 -16 c-73 -32 -118 -109 -113 -191 l3 -52 -62
-35 c-34 -20 -163 -94 -287 -166 -124 -71 -241 -139 -260 -150 -19 -12 -68
-39 -108 -62 l-73 -41 -28 21 c-16 11 -34 20 -39 20 -6 0 -14 6 -19 13 -4 6
-8 218 -8 471 l0 458 40 21 c69 35 115 106 115 179 l0 43 103 57 c56 32 230
132 386 222 l285 164 50 -29 51 -29 0 -449z m-3065 -257 c91 -53 181 -105 200
-116 407 -232 515 -298 504 -308 -5 -4 -99 -59 -209 -123 -110 -63 -294 -169
-408 -235 l-209 -120 -49 25 -49 26 0 468 c0 503 -3 473 45 478 6 0 84 -43
175 -95z m1919 87 c16 -9 17 -41 17 -475 -1 -255 -3 -466 -6 -468 -3 -2 -25
-13 -49 -25 l-43 -22 -92 53 c-50 30 -107 63 -126 74 -19 10 -100 57 -180 104
-80 46 -152 87 -160 91 -47 22 -264 155 -267 163 -1 5 115 77 258 159 144 83
277 160 297 171 291 169 316 183 325 184 5 0 16 -4 26 -9z m-1151 -1358 l-3
-259 -380 221 c-210 121 -398 230 -418 242 -48 29 -52 74 -9 95 15 8 86 48
157 90 72 42 146 85 165 96 19 11 136 78 260 150 l225 131 3 -254 c1 -139 1
-370 0 -512z m332 679 c47 -27 108 -63 136 -78 28 -16 165 -94 303 -174 245
-142 251 -146 247 -174 -3 -16 -8 -32 -13 -36 -4 -4 -191 -113 -415 -243
l-408 -235 0 515 0 515 33 -20 c17 -11 70 -42 117 -70z m-1217 -636 c12 -8 45
-27 73 -43 28 -15 223 -127 432 -248 l382 -220 0 -574 c0 -508 -2 -572 -15
-567 -8 3 -142 79 -298 169 -155 90 -339 196 -409 236 -121 70 -126 74 -119
99 11 38 3 89 -20 134 -20 38 -90 98 -116 98 -11 0 -13 78 -13 445 l0 445 38
19 c45 24 38 24 65 7z m2012 -6 l40 -20 0 -441 1 -441 -36 -18 c-77 -40 -113
-101 -114 -194 l-1 -58 -190 -110 c-104 -61 -290 -168 -412 -239 -122 -71
-225 -129 -228 -129 -3 0 -5 258 -5 573 l0 572 58 32 c31 18 68 39 82 48 14 8
192 112 395 230 204 117 370 214 370 214 1 1 19 -8 40 -19z"/>
</g>
</svg>
